<?xml version="1.0" standalone="no"?>
<!DOCTYPE svg PUBLIC "-//W3C//DTD SVG 20010904//EN"
 "http://www.w3.org/TR/2001/REC-SVG-20010904/DTD/svg10.dtd">
<svg version="1.0" xmlns="http://www.w3.org/2000/svg"
 width="284.000000pt" height="284.000000pt" viewBox="0 0 284.000000 284.000000"
 preserveAspectRatio="xMidYMid meet">
<metadata>
Created by potrace 1.14, written by Peter Selinger 2001-2017
</metadata>
<g transform="translate(0.000000,284.000000) scale(0.100000,-0.100000)"
fill="#000000" stroke="none">
<path d="M1392 2466 c-26 -30 -72 -115 -98 -184 -9 -22 -12 -20 -47 35 -45 69
-100 112 -121 94 -16 -14 -33 -76 -41 -152 -3 -30 -8 -64 -11 -76 l-4 -22 -43
28 c-47 31 -135 61 -156 53 -10 -4 -12 -18 -8 -54 6 -45 -3 -62 -19 -37 -15
24 -198 100 -374 154 -102 32 -200 62 -217 68 -18 6 -35 8 -38 5 -20 -19 -26
-351 -9 -454 20 -120 60 -234 102 -289 34 -45 105 -108 132 -117 8 -2 7 -25
-4 -83 -17 -90 -16 -301 3 -347 6 -16 9 -28 6 -28 -8 0 45 -142 76 -203 71
-142 188 -272 326 -364 240 -160 531 -208 838 -139 50 11 156 52 215 84 267
142 442 371 500 652 25 120 23 303 -5 389 -4 14 5 23 37 37 97 44 172 155 207
307 27 114 31 155 31 287 0 106 -3 156 -15 236 l-5 31 -68 -23 c-37 -12 -147
-48 -245 -79 -98 -31 -212 -74 -254 -96 -58 -31 -74 -36 -68 -22 18 45 23 73
14 79 -29 18 -169 -8 -207 -39 -18 -15 -24 -4 -28 55 -8 105 -34 198 -55 198
-24 0 -78 -51 -118 -112 l-40 -62 -22 50 c-25 56 -86 155 -103 166 -20 14 -34
8 -64 -26z"/>
</g>
</svg>
